<?xml version="1.0" encoding="UTF-8" standalone="no"?>
<!DOCTYPE svg PUBLIC "-//W3C//DTD SVG 1.1//EN" "http://www.w3.org/Graphics/SVG/1.1/DTD/svg11.dtd">
<svg width="100%" height="100%" viewBox="0 0 2962 2904" version="1.1" xmlns="http://www.w3.org/2000/svg" xmlns:xlink="http://www.w3.org/1999/xlink" xml:space="preserve" xmlns:serif="http://www.serif.com/" style="fill-rule:evenodd;clip-rule:evenodd;stroke-linejoin:round;stroke-miterlimit:2;">
    <g transform="matrix(4.16667,0,0,4.16667,0,0)">
        <g id="Artboard1" transform="matrix(1,0,0,1,2.14762e-12,-0.99)">
            <rect x="-0" y="0.99" width="710.813" height="696.749" style="fill:none;"/>
            <clipPath id="_clip1">
                <rect x="-0" y="0.99" width="710.813" height="696.749"/>
            </clipPath>
            <g clip-path="url(#_clip1)">
                <g transform="matrix(1,0,0,1,-681,-678.17)">
                    <path d="M929.296,920.556L929.175,1074.07L844.64,1073.95L844.735,892.97L1105.08,680.15C1133.01,698.432 1387.29,893.249 1387.29,893.249C1387.29,893.249 1317.92,892.859 1282,893.117C1281.99,893.63 1281.99,895.165 1281.94,894.654C1281.13,884.378 1282.1,941.518 1281.72,1074.23L1105.08,1074.07L1105.08,997.873L1196.98,997.196L1197.2,848.675C1167.68,825.064 1131.51,793.483 1105.08,771.547L929.296,920.556Z" style="fill:rgb(28,32,99);"/>
                </g>
                <g transform="matrix(1,0,0,1,-681,-678.17)">
                    <path d="M844.735,892.97C844.735,892.97 845.707,1056.03 844.64,1073.95" style="fill:rgb(28,32,99);"/>
                </g>
                <g transform="matrix(1,0,0,1,-681,-678.17)">
                    <path d="M1100.87,771.456C1069.42,745.356 892.756,854.717 844.735,892.97" style="fill:rgb(28,32,99);"/>
                </g>
                <g id="text23" transform="matrix(9.26997,0,0,9.26997,-4739.73,-13980.5)">
                    <g transform="matrix(1.16923,0,0,1.15143,509.879,1566.89)">
                        <text x="0px" y="0px" style="font-family:'DINAlternate-Bold', 'DIN Alternate', sans-serif;font-weight:700;font-size:17.385px;fill:rgb(28,32,99);">PROPER</text>
                    </g>
                    <g transform="matrix(1.18822,0,0,1.17013,535.726,1583.38)">
                        <text x="0px" y="0px" style="font-family:'DINAlternate-Bold', 'DIN Alternate', sans-serif;font-weight:700;font-size:17.385px;fill:rgb(28,32,99);">FLO<tspan x="29.295px " y="0px ">W</tspan></text>
                    </g>
                </g>
                <g transform="matrix(1,0,0,1,-665.463,-677.02)">
                    <path d="M989.751,780.982C940.601,818.19 809.321,920.133 796.49,931.169L666.463,931.24C677.029,922.076 975.497,690.264 989.492,679.395C989.495,679.137 989.499,679.003 989.502,679C989.502,679 989.586,679.065 989.751,679.193C989.916,679.065 990,679 990,679C990.004,679.003 990.007,679.137 990.011,679.395C1004,690.264 1302.47,922.076 1313.04,931.24L1183.01,931.169C1170.18,920.133 1038.9,818.19 989.751,780.982Z" style="fill:rgb(207,104,68);"/>
                </g>
            </g>
        </g>
    </g>
</svg>
